<svg width="40" height="18" viewBox="0 0 40 18" fill="none" xmlns="http://www.w3.org/2000/svg">
<rect width="40" height="18" rx="9" fill="#A04AE3"/>
<path d="M4.216 12V11.176L6.128 9.208C6.488 8.832 6.768 8.464 6.768 8.088C6.768 7.64 6.464 7.36 6.04 7.36C5.608 7.36 5.288 7.616 5.104 8.016L4.176 7.472C4.536 6.672 5.264 6.288 6.024 6.288C6.984 6.288 7.872 6.928 7.872 8.048C7.872 8.728 7.48 9.312 6.952 9.84L5.856 10.936H7.96V12H4.216ZM10.6919 12.112C9.26788 12.112 8.45188 10.928 8.45188 9.2C8.45188 7.472 9.26788 6.288 10.6919 6.288C12.1239 6.288 12.9319 7.472 12.9319 9.2C12.9319 10.928 12.1239 12.112 10.6919 12.112ZM10.6919 11.032C11.4439 11.032 11.8359 10.384 11.8359 9.2C11.8359 8.016 11.4439 7.36 10.6919 7.36C9.93988 7.36 9.55588 8.016 9.55588 9.2C9.55588 10.384 9.93988 11.032 10.6919 11.032ZM14.7667 8.928C13.9907 8.928 13.4147 8.344 13.4147 7.608C13.4147 6.88 13.9907 6.288 14.7667 6.288C15.5347 6.288 16.1107 6.864 16.1107 7.608C16.1107 8.344 15.5427 8.928 14.7667 8.928ZM13.9827 11.152L17.6307 7.096L18.1187 7.368L14.4627 11.432L13.9827 11.152ZM14.7587 8.12C15.0547 8.12 15.2627 7.888 15.2627 7.608C15.2627 7.328 15.0547 7.104 14.7587 7.104C14.4707 7.104 14.2627 7.328 14.2627 7.608C14.2627 7.896 14.4707 8.12 14.7587 8.12ZM17.4707 12.096C16.6947 12.096 16.1267 11.504 16.1267 10.776C16.1267 10.048 16.6947 9.456 17.4707 9.456C18.2467 9.456 18.8147 10.048 18.8147 10.776C18.8147 11.504 18.2467 12.096 17.4707 12.096ZM17.4707 11.288C17.7667 11.288 17.9667 11.048 17.9667 10.776C17.9667 10.488 17.7667 10.264 17.4707 10.264C17.1747 10.264 16.9747 10.488 16.9747 10.776C16.9747 11.064 17.1747 11.288 17.4707 11.288ZM24.3399 12.112C22.7239 12.112 21.4359 10.832 21.4359 9.2C21.4359 7.56 22.7239 6.288 24.3399 6.288C25.9559 6.288 27.2519 7.56 27.2519 9.2C27.2519 10.832 25.9559 12.112 24.3399 12.112ZM24.3399 11.032C25.3559 11.032 26.1479 10.272 26.1479 9.2C26.1479 8.12 25.3559 7.36 24.3399 7.36C23.3239 7.36 22.5319 8.12 22.5319 9.2C22.5319 10.272 23.3239 11.032 24.3399 11.032ZM31.3718 7.456H29.1318V8.784H31.3078V9.84H29.1318V12H28.0278V6.4H31.3718V7.456ZM35.5203 7.456H33.2803V8.784H35.4563V9.84H33.2803V12H32.1763V6.4H35.5203V7.456Z" fill="white"/>
</svg>
