<svg width="47" height="18" viewBox="0 0 47 18" fill="none" xmlns="http://www.w3.org/2000/svg">
<rect width="47" height="18" rx="9" fill="#3DCBB1"/>
<path d="M7.904 9.096C8.352 9.352 8.64 9.792 8.64 10.376C8.64 11.336 7.864 12 6.896 12H4.52V6.4H6.728C7.672 6.4 8.432 7.04 8.432 7.976C8.432 8.456 8.232 8.832 7.904 9.096ZM6.728 7.432H5.624V8.664H6.728C7.072 8.664 7.328 8.4 7.328 8.048C7.328 7.696 7.08 7.432 6.728 7.432ZM6.896 10.968C7.272 10.968 7.544 10.688 7.544 10.304C7.544 9.928 7.272 9.648 6.896 9.648H5.624V10.968H6.896ZM10.2503 10.424C10.3943 10.952 10.8343 11.176 11.3783 11.176C11.7783 11.176 12.0983 11.008 12.2743 10.776L13.1063 11.256C12.7303 11.8 12.1303 12.112 11.3623 12.112C10.0183 12.112 9.17025 11.192 9.17025 10C9.17025 8.808 10.0263 7.888 11.2823 7.888C12.4663 7.888 13.3063 8.824 13.3063 10C13.3063 10.152 13.2903 10.288 13.2663 10.424H10.2503ZM10.2343 9.624H12.2743C12.1463 9.048 11.7143 8.816 11.2823 8.816C10.7303 8.816 10.3543 9.112 10.2343 9.624ZM14.8224 9.136C14.8224 9.728 16.8864 9.36 16.8864 10.832C16.8864 11.696 16.1344 12.112 15.2784 12.112C14.4784 12.112 13.8864 11.776 13.5984 11.16L14.4944 10.656C14.6064 10.984 14.8784 11.176 15.2784 11.176C15.6064 11.176 15.8304 11.064 15.8304 10.832C15.8304 10.248 13.7664 10.568 13.7664 9.16C13.7664 8.344 14.4624 7.888 15.2864 7.888C15.9344 7.888 16.4944 8.184 16.8064 8.736L15.9264 9.216C15.8064 8.96 15.5824 8.808 15.2864 8.808C15.0304 8.808 14.8224 8.92 14.8224 9.136ZM19.7209 8.992H18.8169V10.656C18.8169 11.088 19.1289 11.096 19.7209 11.064V12C18.2729 12.16 17.7849 11.736 17.7849 10.656V8.992H17.0889V8H17.7849V7.192L18.8169 6.88V8H19.7209V8.992ZM24.4711 12.112C23.3271 12.112 22.5751 11.56 22.2711 10.728L23.2151 10.176C23.4151 10.696 23.8071 11.032 24.5031 11.032C25.1671 11.032 25.3991 10.752 25.3991 10.44C25.3991 10.024 25.0231 9.864 24.1911 9.624C23.3351 9.376 22.5031 9.016 22.5031 7.952C22.5031 6.896 23.3831 6.288 24.3431 6.288C25.2631 6.288 25.9671 6.76 26.3431 7.544L25.4151 8.08C25.2151 7.656 24.9111 7.36 24.3431 7.36C23.8791 7.36 23.6071 7.6 23.6071 7.92C23.6071 8.264 23.8231 8.448 24.6711 8.704C25.5591 8.984 26.5031 9.28 26.5031 10.424C26.5031 11.472 25.6631 12.112 24.4711 12.112ZM28.1565 10.424C28.3005 10.952 28.7405 11.176 29.2845 11.176C29.6845 11.176 30.0045 11.008 30.1805 10.776L31.0125 11.256C30.6365 11.8 30.0365 12.112 29.2685 12.112C27.9245 12.112 27.0765 11.192 27.0765 10C27.0765 8.808 27.9325 7.888 29.1885 7.888C30.3725 7.888 31.2125 8.824 31.2125 10C31.2125 10.152 31.1965 10.288 31.1725 10.424H28.1565ZM28.1405 9.624H30.1805C30.0525 9.048 29.6205 8.816 29.1885 8.816C28.6365 8.816 28.2605 9.112 28.1405 9.624ZM31.9329 12V6.16H32.9649V12H31.9329ZM33.9095 12V6.16H34.9415V12H33.9095ZM36.7581 10.424C36.9021 10.952 37.3421 11.176 37.8861 11.176C38.2861 11.176 38.6061 11.008 38.7821 10.776L39.6141 11.256C39.2381 11.8 38.6381 12.112 37.8701 12.112C36.5261 12.112 35.6781 11.192 35.6781 10C35.6781 8.808 36.5341 7.888 37.7901 7.888C38.9741 7.888 39.8141 8.824 39.8141 10C39.8141 10.152 39.7981 10.288 39.7741 10.424H36.7581ZM36.7421 9.624H38.7821C38.6541 9.048 38.2221 8.816 37.7901 8.816C37.2381 8.816 36.8621 9.112 36.7421 9.624ZM41.5665 8.688C41.7745 8.144 42.2785 7.92 42.7825 7.92V9.072C42.2465 9.008 41.5665 9.248 41.5665 10.088V12H40.5345V8H41.5665V8.688Z" fill="white"/>
</svg>
